<svg width="64" height="65" viewBox="0 0 64 65" fill="none" xmlns="http://www.w3.org/2000/svg">
<g clip-path="url(#clip0_90_205)">
<path d="M30.8346 22.6617C30.3826 21.5635 29.3237 20.8542 28.1364 20.8542H28.1336C26.945 20.8554 25.8862 21.5669 25.436 22.6669C25.4282 22.6857 25.4207 22.7049 25.4134 22.724L18.492 40.8969C18.0006 42.1871 18.6482 43.6315 19.9385 44.123C21.2291 44.6146 22.6732 43.9667 23.1646 42.6765L24.2751 39.7607H31.9445L33.0422 42.6695C33.42 43.6707 34.3714 44.2875 35.3816 44.2875C35.6749 44.2874 35.9732 44.2354 36.2639 44.1257C37.5556 43.6382 38.2076 42.1959 37.7201 40.9041L30.8616 22.7305C30.853 22.7074 30.8439 22.6845 30.8346 22.6617ZM26.1794 34.7606L28.1274 29.646L30.0575 34.7606H26.1794Z" fill="#F4F4F4"/>
<path d="M43.1719 28.5499C41.7911 28.5499 40.6719 29.6692 40.6719 31.0499V41.7868C40.6719 43.1676 41.7911 44.2868 43.1719 44.2868C44.5526 44.2868 45.6719 43.1676 45.6719 41.7868V31.0499C45.6719 29.6692 44.5526 28.5499 43.1719 28.5499Z" fill="#F4F4F4"/>
<path d="M45.6598 23.4317C45.5495 22.4204 44.8397 21.5571 43.8583 21.2752C42.8422 20.9834 41.7148 21.3849 41.1163 22.2569C40.5321 23.1082 40.5336 24.2482 41.1163 25.0997C41.7217 25.9841 42.8732 26.382 43.8972 26.0694C45.0302 25.7234 45.7668 24.6079 45.6598 23.4317Z" fill="#F4F4F4"/>
<path d="M61.5 45.0363H54.2455C52.8925 45.0363 51.785 46.1127 51.7465 47.4653C51.669 50.1871 49.4738 52.3192 46.7486 52.3192H17.2514C14.4944 52.3192 12.2514 50.0762 12.2514 47.3192V17.8221C12.2514 15.0651 14.4944 12.8221 17.2514 12.8221H46.7486C49.5056 12.8221 51.7486 15.0651 51.7486 17.8221V35.0363C51.7486 36.4171 52.8679 37.5363 54.2486 37.5363C55.6179 37.5363 56.73 36.4356 56.7484 35.0706H59C60.3807 35.0706 61.5 33.9513 61.5 32.5706C61.5 31.1898 60.3807 30.0706 59 30.0706H56.7486V20.1048H61.5C62.8807 20.1048 64 18.9856 64 17.6048C64 16.2241 62.8807 15.1048 61.5 15.1048H56.3735C55.4311 11.7712 52.7994 9.13943 49.4658 8.19706V3.07056C49.4658 1.68981 48.3465 0.570557 46.9658 0.570557C45.585 0.570557 44.4658 1.68981 44.4658 3.07056V7.82206H34.5V5.57056C34.5 4.18981 33.3807 3.07056 32 3.07056C30.6192 3.07056 29.5 4.18981 29.5 5.57056V7.82206H19.5343V3.07056C19.5343 1.68981 18.415 0.570557 17.0343 0.570557C15.6535 0.570557 14.5343 1.68981 14.5343 3.07056V8.19718C11.2006 9.13956 8.56888 11.7713 7.6265 15.1049H2.5C1.11925 15.1049 0 16.2242 0 17.6049C0 18.9857 1.11925 20.1049 2.5 20.1049H7.25138V30.0706H5C3.61925 30.0706 2.5 31.1898 2.5 32.5706C2.5 33.9513 3.61925 35.0706 5 35.0706H7.25138V45.0363H2.5C1.11925 45.0363 0 46.1556 0 47.5363C0 48.9171 1.11925 50.0363 2.5 50.0363H7.6265C8.56888 53.3699 11.2006 56.0017 14.5343 56.9441V62.0706C14.5343 63.4513 15.6535 64.5706 17.0343 64.5706C18.415 64.5706 19.5343 63.4513 19.5343 62.0706V57.3191H29.5V59.5706C29.5 60.9513 30.6192 62.0706 32 62.0706C33.3807 62.0706 34.5 60.9513 34.5 59.5706V57.3191H44.4658V62.0706C44.4658 63.4513 45.585 64.5706 46.9658 64.5706C48.3465 64.5706 49.4658 63.4513 49.4658 62.0706V56.9466C51.053 56.5006 52.5132 55.6634 53.724 54.4846C55.0007 53.2416 55.9058 51.7111 56.3761 50.0362H61.5C62.8807 50.0362 64 48.9169 64 47.5362C64 46.1554 62.8807 45.0363 61.5 45.0363Z" fill="#F4F4F4"/>
</g>
<defs>
<clipPath id="clip0_90_205">
<rect width="64" height="64" fill="white" transform="translate(0 0.570557)"/>
</clipPath>
</defs>
</svg>
