<svg width="64" height="65" viewBox="0 0 64 65" fill="none" xmlns="http://www.w3.org/2000/svg">
<path d="M48.3519 17.3318C40.2633 17.3318 33.6828 23.9124 33.6828 32.0009C33.6828 40.0894 40.2633 46.67 48.3519 46.67C56.4405 46.67 63.0211 40.0895 63.0211 32.001C63.0211 23.9126 56.4406 17.3318 48.3519 17.3318ZM48.3519 43.0364C42.2671 43.0364 37.3166 38.0859 37.3166 32.001C37.3166 25.9162 42.2671 20.9657 48.3519 20.9657C54.4367 20.9657 59.3872 25.9162 59.3872 32.001C59.3872 38.0859 54.4369 43.0364 48.3519 43.0364Z" fill="#F4F4F4"/>
<path fill-rule="evenodd" clip-rule="evenodd" d="M33.3078 32.0009C33.3078 23.7053 40.0562 16.9568 48.3519 16.9568C56.6477 16.9568 63.3961 23.7055 63.3961 32.001C63.3961 40.2966 56.6476 47.045 48.3519 47.045C40.0562 47.045 33.3078 40.2965 33.3078 32.0009ZM48.3519 17.7068C40.4704 17.7068 34.0578 24.1195 34.0578 32.0009C34.0578 39.8823 40.4704 46.295 48.3519 46.295C56.2334 46.295 62.6461 39.8824 62.6461 32.001C62.6461 24.1197 56.2335 17.7068 48.3519 17.7068ZM48.3519 21.3407C42.4742 21.3407 37.6916 26.1233 37.6916 32.001C37.6916 37.8788 42.4742 42.6614 48.3519 42.6614C54.2298 42.6614 59.0122 37.8788 59.0122 32.001C59.0122 26.1233 54.2296 21.3407 48.3519 21.3407ZM36.9416 32.001C36.9416 25.7091 42.06 20.5907 48.3519 20.5907C54.6438 20.5907 59.7622 25.7091 59.7622 32.001C59.7622 38.293 54.644 43.4114 48.3519 43.4114C42.06 43.4114 36.9416 38.293 36.9416 32.001Z" fill="#F4F4F4"/>
<path d="M52.4853 30.1842C51.4819 30.1842 50.6684 30.9976 50.6684 32.001C50.6684 33.2783 49.6293 34.3176 48.3519 34.3176C47.0745 34.3176 46.0353 33.2783 46.0353 32.001C46.0353 30.9976 45.2218 30.1842 44.2184 30.1842C43.215 30.1842 42.4015 30.9976 42.4015 32.001C42.4015 35.282 45.0709 37.9513 48.3519 37.9513C51.633 37.9513 54.3022 35.282 54.3022 32.001C54.3022 30.9976 53.4888 30.1842 52.4853 30.1842Z" fill="#F4F4F4"/>
<path fill-rule="evenodd" clip-rule="evenodd" d="M42.0265 32.001C42.0265 30.7905 43.0079 29.8092 44.2184 29.8092C45.4289 29.8092 46.4103 30.7905 46.4103 32.001C46.4103 33.0712 47.2816 33.9426 48.3519 33.9426C49.4222 33.9426 50.2934 33.0712 50.2934 32.001C50.2934 30.7905 51.2748 29.8092 52.4853 29.8092C53.696 29.8092 54.6772 30.7906 54.6772 32.001C54.6772 35.4891 51.8401 38.3263 48.3519 38.3263C44.8638 38.3263 42.0265 35.4891 42.0265 32.001ZM44.2184 30.5592C43.4221 30.5592 42.7765 31.2048 42.7765 32.001C42.7765 35.0748 45.278 37.5763 48.3519 37.5763C51.4258 37.5763 53.9272 35.0749 53.9272 32.001C53.9272 31.2047 53.2817 30.5592 52.4853 30.5592C51.689 30.5592 51.0434 31.2048 51.0434 32.001C51.0434 33.4854 49.8364 34.6926 48.3519 34.6926C46.8675 34.6926 45.6603 33.4854 45.6603 32.001C45.6603 31.2048 45.0147 30.5592 44.2184 30.5592Z" fill="#F4F4F4"/>
<path d="M4.32203 18.643L16.2301 28.7788C16.5696 29.0677 16.9886 29.2122 17.4078 29.2122C17.8265 29.2122 18.2453 29.068 18.5846 28.7796L30.4553 18.687C30.4642 18.6795 30.473 18.6718 30.4817 18.6642C33.5414 16.0917 34.6092 12.1359 33.2686 8.34035C31.8471 4.31598 28.2116 1.66068 24.0062 1.5742C21.5829 1.51 19.2588 2.29731 17.4078 3.77334C15.5565 2.29707 13.238 1.5106 10.8079 1.57444C6.60342 1.66056 2.96895 4.31513 1.54718 8.33842C0.207906 12.1284 1.27441 16.0795 4.32203 18.643ZM4.97332 9.54918C5.66688 7.58684 7.63129 5.27226 10.8862 5.20734C10.8905 5.20722 10.8948 5.20722 10.8991 5.20709C10.9599 5.2054 11.0206 5.20455 11.0812 5.20455C12.9932 5.20455 14.788 6.02408 16.0284 7.47068C16.3737 7.87317 16.8774 8.10477 17.4076 8.10477C17.9379 8.10477 18.4416 7.87317 18.7868 7.47068C20.0663 5.97878 21.9376 5.15404 23.9154 5.20697C23.9196 5.20709 23.9238 5.20722 23.9282 5.20722C27.1839 5.27238 29.1489 7.58768 29.8422 9.55063C30.6784 11.9183 30.0434 14.2855 28.1433 15.883C28.1402 15.8857 28.1368 15.8885 28.1336 15.8913C28.0236 15.9849 20.3925 22.4728 17.4085 25.0098L6.66931 15.869C4.7725 14.2738 4.13865 11.9112 4.97332 9.54918Z" fill="#F4F4F4"/>
<path fill-rule="evenodd" clip-rule="evenodd" d="M17.4078 3.29905C19.2878 1.88498 21.6049 1.1357 24.015 1.1993C28.3791 1.28949 32.1498 4.04708 33.6222 8.21546C35.0143 12.1569 33.9035 16.2774 30.7232 18.9513L30.7181 18.9556C30.7115 18.9613 30.7049 18.967 30.6982 18.9727C30.6982 18.9727 30.6983 18.9726 30.6982 18.9727L18.8275 29.0653C18.4183 29.4131 17.9126 29.5872 17.4078 29.5872C16.9023 29.5872 16.3965 29.4128 15.9871 29.0645L4.08064 18.93C4.08032 18.9297 4.07999 18.9294 4.07966 18.9291C0.912012 16.264 -0.19702 12.1488 1.19361 8.21347C2.66625 4.04623 6.43597 1.28935 10.7991 1.19954C13.2158 1.1363 15.5279 1.88479 17.4078 3.29905ZM30.4976 18.1534C33.2383 15.681 34.1657 12.0064 32.915 8.46525C31.5445 4.58523 28.0448 2.03233 23.9985 1.94912L23.9962 1.94906C21.6611 1.8872 19.4234 2.64571 17.6416 4.06653L17.4078 4.25297L17.174 4.06653C15.3919 2.64548 13.1598 1.88779 10.8178 1.94931L10.8156 1.94936C6.77025 2.03222 3.27152 4.58438 1.90076 8.46336C0.612974 12.1076 1.63658 15.8941 4.56342 18.356L4.5651 18.3574L16.4731 28.4932C16.4731 28.4932 16.4731 28.4933 16.4731 28.4932C16.7427 28.7226 17.0748 28.8372 17.4078 28.8372C17.7404 28.8372 18.0724 28.7228 18.3417 28.4939C18.3417 28.4939 18.3417 28.4939 18.3417 28.4939L30.2124 18.4013L30.2348 18.382L30.4968 18.1527L30.4976 18.1534ZM11.0812 5.57955C11.0241 5.57955 10.9669 5.58035 10.9096 5.58195L10.8979 5.58218C10.8965 5.5822 10.896 5.58221 10.896 5.58221L10.8936 5.58226C7.83861 5.6432 5.98465 7.81308 5.32689 9.67414C4.54351 11.8911 5.13517 14.0888 6.91068 15.582L6.91237 15.5834L17.4086 24.5175L27.8905 15.6057L27.8968 15.6003C27.8995 15.5981 27.8998 15.5978 27.9 15.5977C27.9001 15.5976 27.9002 15.5975 27.9011 15.5968L27.902 15.596C29.6807 14.1006 30.2736 11.8981 29.4886 9.67552C28.8313 7.81449 26.9777 5.64462 23.9234 5.5822M10.8888 4.83223C10.9531 4.83045 11.0172 4.82955 11.0812 4.82955C13.1017 4.82955 15.0007 5.69613 16.313 7.2265C16.5871 7.546 16.9868 7.72977 17.4076 7.72977C17.8285 7.72977 18.2281 7.54599 18.5021 7.22654C19.8559 5.64807 21.8358 4.77618 23.9255 4.83211C23.927 4.83215 23.9289 4.8322 23.9293 4.83222H23.9357C27.3912 4.90138 29.4667 7.36144 30.1958 9.42574C31.0833 11.9384 30.4061 14.4705 28.3846 16.1701L28.3819 16.1724L28.3806 16.1734L28.3767 16.1769L17.4083 25.5021L6.42795 16.156C6.42766 16.1557 6.42736 16.1555 6.42707 16.1553C4.40964 14.458 3.73393 11.931 4.61975 9.42424C5.34911 7.36061 7.42397 4.90132 10.8787 4.83241L10.8862 5.20734L10.8757 4.83248L10.8787 4.83241L10.8874 4.83225L10.8888 4.83223C10.8889 4.83223 10.8888 4.83224 10.8888 4.83223ZM10.8888 4.83223C10.8888 4.83224 10.8889 4.83223 10.8888 4.83223V4.83223Z" fill="#F4F4F4"/>
<path d="M30.7745 43.1579L27.1172 43.1469L27.705 40.6138C28.0775 39.009 27.794 37.3606 26.907 35.9725C25.7354 34.0798 23.5453 33.0225 21.3378 33.2602C20.6356 33.2602 19.9964 33.6647 19.6958 34.2993L17.187 39.5951C16.5717 40.8943 15.6184 42.0086 14.4301 42.8176L10.2392 45.6713H2.80649C1.8031 45.6713 0.989621 46.4848 0.989621 47.4882V61.7535C0.989621 62.7569 1.8031 63.5703 2.80649 63.5703H26.0368C29.1713 63.5703 32.0637 61.74 33.4055 58.9073L36.5387 52.2936C37.4815 50.3034 37.3427 48.0034 36.1674 46.1409C34.9922 44.2785 32.9757 43.1633 30.7745 43.1579ZM4.62337 49.3051H8.97623V59.9286H4.62337V49.3051ZM33.2549 50.738L30.1217 57.3517C29.3778 58.9219 27.7745 59.9366 26.0368 59.9366H12.6099V48.4533L16.4753 45.8213C18.1976 44.6486 19.5793 43.0335 20.471 41.1507L22.4825 36.9043C23.046 37.0698 23.5248 37.4284 23.8448 37.9292C24.2008 38.4865 24.3146 39.1482 24.1652 39.7924L23.0621 44.5461C22.9371 45.0849 23.0643 45.6514 23.4075 46.0849C23.751 46.5185 24.2731 46.772 24.8263 46.7736L30.7642 46.7915C31.7297 46.7939 32.5789 47.2635 33.0941 48.08C33.6098 48.8967 33.6681 49.8654 33.2549 50.738Z" fill="#F4F4F4"/>
<path fill-rule="evenodd" clip-rule="evenodd" d="M27.2244 35.7729C28.1646 37.2455 28.4654 38.9963 28.0703 40.6986L27.5889 42.7733L30.7754 42.7829C33.105 42.7887 35.2408 43.9699 36.4846 45.9408C37.7284 47.9118 37.8754 50.3479 36.8776 52.4542L33.7444 59.0678C32.3406 62.0315 29.3162 63.9453 26.0368 63.9453H2.80649C1.59599 63.9453 0.614621 62.964 0.614621 61.7535V47.4882C0.614621 46.2777 1.59599 45.2963 2.80649 45.2963H10.1237L14.2191 42.5077C15.3521 41.7362 16.2614 40.6735 16.8481 39.4346L19.3569 34.1388C19.7166 33.3795 20.4781 32.8932 21.317 32.8853C23.6591 32.6407 25.9793 33.7633 27.2244 35.7729ZM26.5881 36.1699C25.4933 34.4011 23.4434 33.4107 21.3779 33.633L21.3579 33.6352H21.3378C20.7805 33.6352 20.2733 33.9562 20.0347 34.4598L17.526 39.7556C17.526 39.7556 17.526 39.7556 17.526 39.7556C16.8821 41.1151 15.8846 42.2811 14.6412 43.1276L10.3548 46.0463H2.80649C2.0102 46.0463 1.36462 46.6919 1.36462 47.4882V61.7535C1.36462 62.5498 2.0102 63.1953 2.80649 63.1953H26.0368C29.0264 63.1953 31.7869 61.4485 33.0666 58.7467L36.1998 52.1331C37.0877 50.2589 36.9571 48.0949 35.8503 46.3411C34.7435 44.5872 32.8463 43.538 30.7735 43.5329L26.6456 43.5204L27.3398 40.529C27.6894 39.0226 27.4236 37.4775 26.591 36.1744L26.5881 36.1699ZM22.2808 36.4543L22.5882 36.5445C23.2388 36.7356 23.7922 37.1505 24.1608 37.7272C24.5711 38.3695 24.7027 39.1346 24.5305 39.8772L23.4274 44.6309C23.3282 45.0585 23.4291 45.5081 23.7015 45.8521C23.9742 46.1962 24.3884 46.3973 24.8273 46.3986L30.7651 46.4165M33.4112 47.8798C33.9954 48.8051 34.062 49.9099 33.5938 50.8985L30.4606 57.5122C29.6546 59.2134 27.9194 60.3116 26.0368 60.3116H12.2349V48.255L16.2643 45.5113C17.9314 44.3762 19.2689 42.8127 20.1321 40.9902L22.2808 36.4543M22.6737 37.3766C23.021 37.5398 23.3158 37.7978 23.5288 38.131C23.8305 38.6033 23.9265 39.1617 23.7999 39.7077C23.7999 39.7077 23.7999 39.7077 23.7999 39.7077L22.6968 44.4613C22.546 45.1113 22.6994 45.7947 23.1135 46.3177C23.5279 46.8407 24.1577 47.1467 24.8251 47.1486C24.8251 47.1486 24.8252 47.1486 24.8251 47.1486L30.763 47.1665C31.6002 47.1686 32.3303 47.5722 32.777 48.2802C33.2241 48.9882 33.2743 49.8209 32.916 50.5775L29.7828 57.1911C29.1009 58.6304 27.6295 59.5616 26.0368 59.5616H12.9849V48.6517L16.6864 46.1313C18.4638 44.921 19.8896 43.2543 20.8099 41.3113C20.8099 41.3113 20.8099 41.3113 20.8099 41.3113L22.6737 37.3766ZM4.24837 48.9301H9.35123V60.3036H4.24837V48.9301ZM4.99837 49.6801V59.5536H8.60123V49.6801H4.99837Z" fill="#F4F4F4"/>
</svg>
