<svg width="64" height="65" viewBox="0 0 64 65" fill="none" xmlns="http://www.w3.org/2000/svg">
<path d="M31.9982 9.59951C31.0274 9.59951 30.2403 10.3866 30.2403 11.3574C30.2403 12.3282 31.0274 13.1153 31.9982 13.1153C37.8149 13.1153 42.5473 17.8468 42.5473 23.6627C42.5473 24.6335 43.3344 25.4205 44.3052 25.4205C45.276 25.4205 46.0631 24.6335 46.0631 23.6627C46.0631 15.9082 39.7537 9.59951 31.9982 9.59951Z" fill="#F4F4F4"/>
<path fill-rule="evenodd" clip-rule="evenodd" d="M29.8653 11.3574C29.8653 10.1795 30.8203 9.22451 31.9982 9.22451C39.9607 9.22451 46.4381 15.7011 46.4381 23.6627C46.4381 24.8406 45.4831 25.7955 44.3052 25.7955C43.1273 25.7955 42.1723 24.8406 42.1723 23.6627C42.1723 18.054 37.6079 13.4903 31.9982 13.4903C30.8203 13.4903 29.8653 12.5353 29.8653 11.3574ZM31.9982 9.97451C31.2345 9.97451 30.6153 10.5937 30.6153 11.3574C30.6153 12.1211 31.2345 12.7403 31.9982 12.7403C38.022 12.7403 42.9223 17.6397 42.9223 23.6627C42.9223 24.4264 43.5415 25.0455 44.3052 25.0455C45.0689 25.0455 45.6881 24.4264 45.6881 23.6627C45.6881 16.1154 39.5466 9.97451 31.9982 9.97451Z" fill="#F4F4F4"/>
<path d="M27.4687 3.04135C19.5265 4.70092 13.0868 11.079 11.3923 19.0705C9.96146 25.8187 11.7246 32.5936 16.2296 37.6581C18.4318 40.1336 19.6947 43.4013 19.6947 46.6324V50.1482C19.6947 52.4874 21.226 54.4746 23.3386 55.1629C24.0333 59.2676 27.5959 62.5705 31.9999 62.5705C36.4027 62.5705 39.9664 59.2686 40.6613 55.1629C42.7738 54.4746 44.3052 52.4874 44.3052 50.1481V46.6323C44.3052 43.3948 45.5723 40.1664 47.8728 37.5418C51.2402 33.7002 53.0946 28.771 53.0946 23.6626C53.0946 10.3536 40.9126 0.232711 27.4687 3.04135ZM31.9999 59.0549C29.7402 59.0549 27.759 57.4999 27.0273 55.4102H36.9724C36.2409 57.4999 34.2596 59.0549 31.9999 59.0549ZM40.7894 50.1482C40.7894 51.1175 40.0008 51.9061 39.0315 51.9061H24.9684C23.9991 51.9061 23.2105 51.1175 23.2105 50.1482V48.3903H40.7894V50.1482ZM45.2289 35.2245C42.7772 38.0216 41.2688 41.3944 40.8861 44.8745H23.1141C22.7318 41.3925 21.2273 37.9865 18.8567 35.3214C15.1021 31.1006 13.635 25.4431 14.8316 19.7998C16.2285 13.2119 21.5959 7.86033 28.1879 6.48296C39.4412 4.13125 49.5789 12.5823 49.5789 23.6626C49.5789 27.9181 48.034 32.0242 45.2289 35.2245Z" fill="#F4F4F4"/>
<path fill-rule="evenodd" clip-rule="evenodd" d="M27.392 2.67428C41.069 -0.183069 53.4696 10.1159 53.4696 23.6626C53.4696 28.862 51.5821 33.879 48.1548 37.789C45.9091 40.351 44.6802 43.4932 44.6802 46.6323V50.1481C44.6802 52.5754 43.1419 54.647 40.9911 55.445C40.1798 59.6173 36.5183 62.9455 31.9999 62.9455C27.4804 62.9455 23.8198 59.6163 23.0087 55.445C20.858 54.647 19.3197 52.5754 19.3197 50.1482V46.6324C19.3197 43.4959 18.0924 40.3162 15.9495 37.9074C11.3636 32.752 9.57041 25.8551 11.0254 18.9927C12.7509 10.8553 19.3049 4.36414 27.392 2.67428ZM52.7196 23.6626C52.7196 10.5914 40.7561 0.648498 27.5454 3.40843C19.7482 5.03771 13.4227 11.3028 11.7591 19.1483C10.3525 25.7824 12.0857 32.4353 16.5098 37.4089C18.7713 39.951 20.0697 43.3067 20.0697 46.6324V50.1482C20.0697 52.3198 21.4915 54.1667 23.4547 54.8063L23.6704 54.8766L23.7083 55.1003C24.3745 59.0363 27.7905 62.1955 31.9999 62.1955C36.2082 62.1955 39.6252 59.0373 40.2916 55.1003L40.3294 54.8766L40.5451 54.8063C42.5084 54.1667 43.9302 52.3198 43.9302 50.1481V46.6323C43.9302 43.2965 45.2354 39.9818 47.5908 37.2946C50.8982 33.5214 52.7196 28.6801 52.7196 23.6626ZM49.2039 23.6626C49.2039 12.8201 39.2848 4.54703 28.2646 6.85003C21.8181 8.19699 16.5645 13.4351 15.1985 19.8776C14.0259 25.4072 15.4635 30.9426 19.1369 35.0722C21.4833 37.7101 22.999 41.057 23.4468 44.4995H40.5535C41.0024 41.058 42.5255 37.7399 44.9469 34.9773C47.6921 31.8454 49.2039 27.8272 49.2039 23.6626ZM28.1112 6.11589C39.5976 3.71547 49.9539 12.3444 49.9539 23.6626C49.9539 28.0091 48.376 32.203 45.5109 35.4717C43.1072 38.214 41.6327 41.5157 41.2588 44.9155L41.2221 45.2495H22.778L22.7414 44.9154C22.3676 41.5109 20.8955 38.1777 18.5766 35.5707C14.7408 31.2586 13.244 25.479 14.4648 19.722C15.8925 12.9887 21.3737 7.52365 28.1112 6.11589ZM22.8355 48.0153H41.1644V50.1482C41.1644 51.3246 40.2079 52.2811 39.0315 52.2811H24.9684C23.7919 52.2811 22.8355 51.3246 22.8355 50.1482V48.0153ZM23.5855 48.7653V50.1482C23.5855 50.9104 24.2062 51.5311 24.9684 51.5311H39.0315C39.7937 51.5311 40.4144 50.9104 40.4144 50.1482V48.7653H23.5855ZM26.4987 55.0352H37.501L37.3264 55.5341C36.5474 57.7595 34.4341 59.4299 31.9999 59.4299C29.5658 59.4299 27.4525 57.7595 26.6734 55.5341L26.4987 55.0352ZM27.5862 55.7852C28.3897 57.4805 30.0965 58.6799 31.9999 58.6799C33.9034 58.6799 35.6101 57.4805 36.4135 55.7852H27.5862Z" fill="#F4F4F4"/>
<path d="M7.27221 23.6627H3.75643C2.7856 23.6627 1.99854 24.4497 1.99854 25.4205C1.99854 26.3914 2.7856 27.1784 3.75643 27.1784H7.27221C8.24304 27.1784 9.03011 26.3914 9.03011 25.4205C9.03011 24.4497 8.24304 23.6627 7.27221 23.6627Z" fill="#F4F4F4"/>
<path fill-rule="evenodd" clip-rule="evenodd" d="M1.62354 25.4205C1.62354 24.2426 2.5785 23.2877 3.75643 23.2877H7.27221C8.45015 23.2877 9.40511 24.2426 9.40511 25.4205C9.40511 26.5985 8.45015 27.5534 7.27221 27.5534H3.75643C2.5785 27.5534 1.62354 26.5985 1.62354 25.4205ZM3.75643 24.0377C2.99271 24.0377 2.37354 24.6568 2.37354 25.4205C2.37354 26.1843 2.99271 26.8034 3.75643 26.8034H7.27221C8.03593 26.8034 8.65511 26.1843 8.65511 25.4205C8.65511 24.6568 8.03593 24.0377 7.27221 24.0377H3.75643Z" fill="#F4F4F4"/>
<path d="M8.00034 14.8731L5.51433 12.3871C4.82793 11.7006 3.71483 11.7006 3.02832 12.3871C2.3418 13.0736 2.3418 14.1866 3.02832 14.8731L5.51433 17.3591C6.20073 18.0456 7.31382 18.0457 8.00034 17.3591C8.68686 16.6726 8.68686 15.5596 8.00034 14.8731Z" fill="#F4F4F4"/>
<path fill-rule="evenodd" clip-rule="evenodd" d="M5.77952 12.1219C5.77951 12.1219 5.77952 12.1219 5.77952 12.1219L8.2655 14.6079C9.09846 15.4409 9.09847 16.7913 8.26553 17.6242C7.43254 18.4574 6.08197 18.4572 5.24914 17.6242L2.76315 15.1382C1.93019 14.3053 1.93019 12.9549 2.76315 12.1219C3.59609 11.289 4.94665 11.2889 5.77952 12.1219ZM5.24914 12.6522C4.70921 12.1122 3.83356 12.1121 3.29348 12.6522C2.75341 13.1923 2.75341 14.0678 3.29348 14.6079L5.77949 17.0939C6.31946 17.634 7.1951 17.6341 7.73515 17.0939C8.27522 16.5539 8.27524 15.6783 7.73518 15.1382L5.24914 12.6522Z" fill="#F4F4F4"/>
<path d="M8.00034 33.4818C7.31382 32.7953 6.20073 32.7953 5.51433 33.4818L3.02832 35.9678C2.3418 36.6543 2.3418 37.7673 3.02832 38.4538C3.71471 39.1403 4.82781 39.1404 5.51433 38.4538L8.00034 35.9678C8.68686 35.2813 8.68686 34.1683 8.00034 33.4818Z" fill="#F4F4F4"/>
<path fill-rule="evenodd" clip-rule="evenodd" d="M5.24914 33.2166C6.082 32.3836 7.43256 32.3837 8.2655 33.2166C9.09847 34.0496 9.09847 35.4 8.2655 36.233L5.77952 38.7189C4.94653 39.5521 3.59596 39.5519 2.76313 38.7189C1.93019 37.886 1.9302 36.5356 2.76315 35.7026L5.24914 33.2166ZM7.73518 33.7469C7.19509 33.2069 6.31945 33.2069 5.77952 33.7469L3.29348 36.233C2.75341 36.773 2.75341 37.6486 3.29348 38.1886C3.83344 38.7287 4.70909 38.7288 5.24914 38.1887L7.73518 35.7026C8.27524 35.1626 8.27524 34.287 7.73518 33.7469Z" fill="#F4F4F4"/>
<path d="M60.2434 23.6627H56.7276C55.7568 23.6627 54.9697 24.4497 54.9697 25.4205C54.9697 26.3914 55.7568 27.1784 56.7276 27.1784H60.2434C61.2142 27.1784 62.0013 26.3914 62.0013 25.4205C62.0013 24.4497 61.2142 23.6627 60.2434 23.6627Z" fill="#F4F4F4"/>
<path fill-rule="evenodd" clip-rule="evenodd" d="M54.5947 25.4205C54.5947 24.2426 55.5497 23.2877 56.7276 23.2877H60.2434C61.4213 23.2877 62.3763 24.2426 62.3763 25.4205C62.3763 26.5985 61.4213 27.5534 60.2434 27.5534H56.7276C55.5497 27.5534 54.5947 26.5985 54.5947 25.4205ZM56.7276 24.0377C55.9639 24.0377 55.3447 24.6568 55.3447 25.4205C55.3447 26.1843 55.9639 26.8034 56.7276 26.8034H60.2434C61.0071 26.8034 61.6263 26.1843 61.6263 25.4205C61.6263 24.6568 61.0071 24.0377 60.2434 24.0377H56.7276Z" fill="#F4F4F4"/>
<path d="M60.9715 12.3871C60.2851 11.7006 59.172 11.7006 58.4855 12.3871L55.9995 14.8731C55.313 15.5596 55.313 16.6726 55.9995 17.3591C56.6859 18.0455 57.799 18.0456 58.4855 17.3591L60.9715 14.8731C61.658 14.1866 61.658 13.0736 60.9715 12.3871Z" fill="#F4F4F4"/>
<path fill-rule="evenodd" clip-rule="evenodd" d="M58.2203 12.1219C59.0533 11.289 60.4038 11.2889 61.2367 12.1219C62.0696 12.9549 62.0696 14.3053 61.2367 15.1382L58.7507 17.6243C57.9177 18.4572 56.5672 18.4571 55.7343 17.6243C54.9014 16.7913 54.9014 15.4409 55.7343 14.6079L58.2203 12.1219ZM60.7063 12.6522C60.1664 12.1122 59.2908 12.1121 58.7507 12.6522L56.2647 15.1382C55.7246 15.6783 55.7246 16.5539 56.2647 17.0939C56.8046 17.6339 57.6803 17.634 58.2203 17.0939L60.7064 14.6079C61.2464 14.0678 61.2464 13.1923 60.7063 12.6522Z" fill="#F4F4F4"/>
<path d="M60.9715 35.9678L58.4855 33.4818C57.7991 32.7953 56.686 32.7953 55.9995 33.4818C55.313 34.1683 55.313 35.2813 55.9995 35.9678L58.4855 38.4538C59.1719 39.1402 60.285 39.1403 60.9715 38.4538C61.658 37.7673 61.658 36.6543 60.9715 35.9678Z" fill="#F4F4F4"/>
<path fill-rule="evenodd" clip-rule="evenodd" d="M58.7507 33.2166C58.7507 33.2166 58.7507 33.2166 58.7507 33.2166L61.2367 35.7026C62.0696 36.5356 62.0696 37.886 61.2367 38.719C60.4037 39.5519 59.0532 39.5518 58.2203 38.719L55.7343 36.233C54.9014 35.4 54.9014 34.0496 55.7343 33.2166C56.5673 32.3837 57.9178 32.3837 58.7507 33.2166ZM58.2203 33.7469C57.6804 33.2069 56.8047 33.2069 56.2647 33.7469C55.7246 34.287 55.7246 35.1626 56.2647 35.7026L58.7507 38.1886C59.2906 38.7286 60.1663 38.7287 60.7064 38.1886C61.2464 37.6486 61.2464 36.773 60.7064 36.233L58.2203 33.7469Z" fill="#F4F4F4"/>
</svg>
