<svg width="149" height="42" viewBox="0 0 149 42" fill="none" xmlns="http://www.w3.org/2000/svg">
<path d="M5.29757 27.4312C5.20135 27.5268 5.15283 27.6425 5.15283 27.7799V35.4182C5.15283 35.5548 5.20135 35.6705 5.29757 35.7669C5.3946 35.8625 5.51104 35.9107 5.64851 35.9107H10.4775C10.6158 35.9107 10.7322 35.8625 10.8284 35.7669C10.9254 35.6705 10.9732 35.5548 10.9732 35.4182V33.0697H28.2255V35.4182C28.2255 35.5548 28.274 35.6705 28.3702 35.7669C28.4673 35.8625 28.5837 35.9107 28.7212 35.9107H33.5502C33.6884 35.9107 33.8049 35.8625 33.9011 35.7669C33.9981 35.6705 34.0458 35.5548 34.0458 35.4182V27.7799C34.0458 27.6425 33.9981 27.5268 33.9011 27.4312C33.8049 27.3348 33.6884 27.2874 33.5502 27.2874H5.64851C5.64851 27.2874 5.64446 27.2874 5.64285 27.2874C5.50781 27.289 5.39299 27.3356 5.29757 27.4304V27.4312Z" fill="#C0362E"/>
<path d="M10.9722 4.22712C10.9722 4.08973 10.9245 3.97403 10.8274 3.87842C10.7312 3.78201 10.6148 3.73461 10.4765 3.73461H5.64753C5.51007 3.73461 5.39363 3.78201 5.2966 3.87842C5.20037 3.97403 5.15186 4.08973 5.15186 4.22712V11.8654C5.15186 12.0028 5.20037 12.1185 5.2966 12.2141C5.39363 12.3105 5.51007 12.3579 5.64753 12.3579H33.5492C33.6874 12.3579 33.8039 12.3105 33.9001 12.2141C33.9971 12.1185 34.0448 12.0028 34.0448 11.8654V4.22712C34.0448 4.08973 33.9971 3.97403 33.9001 3.87842C33.8039 3.78201 33.6874 3.73461 33.5492 3.73461H28.7202C28.5827 3.73461 28.4663 3.78201 28.3693 3.87842C28.273 3.97403 28.2245 4.08973 28.2245 4.22712V6.57556H10.9722V4.22712Z" fill="#C0362E"/>
<path d="M5.15283 17.4075V22.2217C5.15283 22.3583 5.20135 22.474 5.29757 22.5704C5.3946 22.666 5.51104 22.7142 5.64851 22.7142H10.4775C10.6158 22.7142 10.7322 22.666 10.8284 22.5704C10.9246 22.4748 10.9732 22.3583 10.9732 22.2217V17.4075C10.9732 17.2701 10.9254 17.1544 10.8284 17.0588C10.7322 16.9624 10.6158 16.915 10.4775 16.915H5.64851C5.51104 16.915 5.3946 16.9624 5.29757 17.0588C5.20135 17.1544 5.15283 17.2701 5.15283 17.4075Z" fill="#C0362E"/>
<path d="M16.7305 17.4075V22.2217C16.7305 22.3583 16.779 22.474 16.8752 22.5704C16.9722 22.666 17.0887 22.7142 17.2261 22.7142H22.0551C22.1934 22.7142 22.3098 22.666 22.4061 22.5704C22.5031 22.474 22.5508 22.3583 22.5508 22.2217V17.4075C22.5508 17.2701 22.5031 17.1544 22.4061 17.0588C22.3098 16.9624 22.1934 16.915 22.0551 16.915H17.2261C17.0887 16.915 16.9722 16.9624 16.8752 17.0588C16.779 17.1544 16.7305 17.2701 16.7305 17.4075Z" fill="#C0362E"/>
<path d="M28.3071 17.4075V22.2217C28.3071 22.3583 28.3556 22.474 28.4519 22.5704C28.5489 22.666 28.6653 22.7142 28.8028 22.7142H33.6318C33.77 22.7142 33.8865 22.666 33.9827 22.5704C34.0789 22.4748 34.1275 22.3583 34.1275 22.2217V17.4075C34.1275 17.2701 34.0797 17.1544 33.9827 17.0588C33.8865 16.9624 33.77 16.915 33.6318 16.915H28.8028C28.6653 16.915 28.5489 16.9624 28.4519 17.0588C28.3556 17.1544 28.3071 17.2701 28.3071 17.4075Z" fill="#C0362E"/>
<path d="M88.8677 24.6722V11.8421H91.7989V15.8649H93.6845V18.4311H91.7989V24.6722C91.7989 25.3664 92.0786 25.7126 92.846 25.7126H93.6845V28.2788H92.567C90.6134 28.2788 88.8677 27.1685 88.8677 24.6722Z" fill="#F2F2F2"/>
<path d="M139.771 24.6722V11.8421H142.702V15.8649H144.587V18.4311H142.702V24.6722C142.702 25.3664 142.981 25.7126 143.749 25.7126H144.587V28.2788H143.47C141.516 28.2788 139.771 27.1685 139.771 24.6722Z" fill="#F2F2F2"/>
<path d="M80.4377 15.3539C76.8782 15.3539 73.9648 18.2664 73.9648 21.8031C73.9648 25.3399 76.9057 28.2523 80.4652 28.2523C81.7913 28.2523 83.174 27.8361 84.1031 27.1428V28.1953H86.892V21.8023C86.892 18.2656 83.9972 15.3531 80.4369 15.3531L80.4377 15.3539ZM80.4741 25.4097C78.4502 25.4097 76.8451 23.8141 76.8451 21.8031C76.8451 19.7921 78.4502 18.1965 80.4741 18.1965C82.498 18.1965 84.1031 19.7913 84.1031 21.8031C84.1031 23.8149 82.498 25.4097 80.4741 25.4097Z" fill="#F2F2F2"/>
<path d="M119.719 15.3539C116.159 15.3539 113.246 18.2664 113.246 21.8031C113.246 25.3399 116.187 28.2523 119.746 28.2523C121.073 28.2523 122.455 27.8361 123.384 27.1428V28.1953H126.173V21.8023C126.173 18.2656 123.278 15.3531 119.718 15.3531L119.719 15.3539ZM119.755 25.4097C117.731 25.4097 116.126 23.8141 116.126 21.8031C116.126 19.7921 117.731 18.1965 119.755 18.1965C121.779 18.1965 123.384 19.7913 123.384 21.8031C123.384 23.8149 121.779 25.4097 119.755 25.4097Z" fill="#F2F2F2"/>
<path d="M64.3024 28.2788V20.9973C64.3024 19.6105 65.4886 18.4311 66.9546 18.4311C68.3503 18.4311 69.5365 19.6105 69.5365 20.9973V28.2788H72.4677V21.0664C72.4677 18.084 69.9553 15.5877 66.9538 15.5877C65.9762 15.5877 65.0689 15.8641 64.3016 16.2811V11.8421H61.4399V28.2788H64.3016H64.3024Z" fill="#F2F2F2"/>
<path d="M127.484 24.1869C127.484 26.8913 130.275 28.2097 133.068 28.2788C136.766 28.2788 138.442 26.406 138.512 24.534C138.582 21.6215 135.789 20.8575 133.277 20.5112C131.603 20.234 130.764 20.0958 130.834 19.2626C130.834 18.4303 132.161 18.2222 132.928 18.2222C133.835 18.2222 135.162 18.4994 135.162 19.6097H138.023C137.953 17.1817 135.929 15.5869 132.998 15.5178C130.067 15.5178 128.043 16.9046 127.903 19.1237C127.625 22.4523 131.603 23.0075 132.858 23.2156C134.533 23.4236 135.441 23.7707 135.58 24.3259C135.72 25.2274 134.742 25.5736 133.138 25.5736C131.044 25.5736 130.485 24.6031 130.346 24.1861H127.485L127.484 24.1869Z" fill="#F2F2F2"/>
<path d="M44.8739 15.4632C45.6331 14.1769 46.6641 13.1726 47.9668 12.4495C49.2694 11.7272 50.6958 11.3657 52.2459 11.3657C54.02 11.3657 55.5984 11.7987 56.9811 12.664C58.363 13.5301 59.3665 14.757 59.9899 16.3446H56.7053C56.2735 15.4712 55.6744 14.8204 54.907 14.3914C54.1396 13.9624 53.2526 13.7487 52.2459 13.7487C51.143 13.7487 50.1605 13.9953 49.2969 14.487C48.4341 14.9795 47.7581 15.6865 47.2714 16.6073C46.7838 17.5288 46.5404 18.6006 46.5404 19.8234C46.5404 21.0463 46.7838 22.1189 47.2714 23.0396C47.759 23.9611 48.4341 24.6714 49.2969 25.1719C50.1597 25.6725 51.143 25.9223 52.2459 25.9223C53.2526 25.9223 54.1396 25.7078 54.907 25.2796C55.6744 24.8506 56.2735 24.1998 56.7053 23.3264H59.9899C59.3665 24.9148 58.3638 26.1377 56.9811 26.9949C55.5984 27.8522 54.02 28.2812 52.2459 28.2812C50.6796 28.2812 49.2492 27.9205 47.9546 27.1974C46.6601 26.4751 45.6331 25.47 44.8739 24.1837C44.1146 22.8974 43.7354 21.444 43.7354 19.8242C43.7354 18.2045 44.1146 16.7511 44.8739 15.4648V15.4632Z" fill="#F2F2F2"/>
<path d="M96.474 15.4632C97.2332 14.1769 98.2642 13.1726 99.5669 12.4495C100.87 11.7272 102.296 11.3657 103.846 11.3657C105.62 11.3657 107.198 11.7987 108.581 12.664C109.963 13.5301 110.967 14.757 111.59 16.3446H108.305C107.874 15.4712 107.274 14.8204 106.507 14.3914C105.74 13.9624 104.853 13.7487 103.846 13.7487C102.743 13.7487 101.761 13.9953 100.897 14.487C100.034 14.9795 99.3582 15.6865 98.8715 16.6073C98.3839 17.5288 98.1405 18.6006 98.1405 19.8234C98.1405 21.0463 98.3839 22.1189 98.8715 23.0396C99.3591 23.9611 100.034 24.6714 100.897 25.1719C101.76 25.6725 102.743 25.9223 103.846 25.9223C104.853 25.9223 105.74 25.7078 106.507 25.2796C107.274 24.8506 107.874 24.1998 108.305 23.3264H111.59C110.967 24.9148 109.964 26.1377 108.581 26.9949C107.198 27.8522 105.62 28.2812 103.846 28.2812C102.28 28.2812 100.849 27.9205 99.5547 27.1974C98.2602 26.4751 97.2332 25.47 96.474 24.1837C95.7147 22.8974 95.3354 21.444 95.3354 19.8242C95.3354 18.2045 95.7147 16.7511 96.474 15.4648V15.4632Z" fill="#F2F2F2"/>
</svg>
