<svg width="64" height="65" viewBox="0 0 64 65" fill="none" xmlns="http://www.w3.org/2000/svg">
<path d="M32.0143 19.3868H43.7322C44.5553 23.6321 48.2989 26.8479 52.7811 26.8479C57.8645 26.8479 62 22.7123 62 17.629C62 12.5458 57.8643 8.41001 52.7811 8.41001C48.2989 8.41001 44.5555 11.626 43.7322 15.8711H32.0137C31.1402 8.39313 24.7671 2.57056 17.0585 2.57056C8.75515 2.57056 2 9.32571 2 17.629C2 25.9584 8.72926 32.6875 17.0585 32.6875C20.4548 32.6875 23.7421 31.5493 26.3966 29.4531L35.1282 38.1848C33.4404 40.3178 32.3177 42.9169 31.9863 45.7545H20.2678C19.4446 41.5093 15.7011 38.2934 11.2189 38.2934C6.13566 38.2932 2 42.4288 2 47.5121C2 52.5953 6.13566 56.731 11.2189 56.731C15.7011 56.731 19.4445 53.515 20.2678 49.2699H31.9857C32.8639 56.817 39.248 62.5706 46.9415 62.5706C55.271 62.5706 62 55.8412 62 47.5121C62 39.2089 55.2448 32.4536 46.9415 32.4536C43.4219 32.4536 40.1807 33.6677 37.614 35.6986L28.8815 26.9662C30.5768 24.818 31.6861 22.2078 32.0143 19.3868ZM52.7811 11.9256C55.9259 11.9256 58.4844 14.4842 58.4844 17.6289C58.4844 20.7736 55.9258 23.3322 52.7811 23.3322C49.6364 23.3322 47.0778 20.7736 47.0778 17.6289C47.0778 14.4842 49.6362 11.9256 52.7811 11.9256ZM5.51562 17.629C5.51562 11.2642 10.6937 6.08618 17.0585 6.08618C23.4233 6.08618 28.6013 11.2642 28.6013 17.629C28.6013 20.4768 27.5652 23.1228 25.8112 25.1627C25.1894 22.8511 23.6751 20.9028 21.6615 19.7104C22.4327 18.7211 22.8938 17.4789 22.8938 16.1303C22.8938 12.9127 20.2761 10.2951 17.0586 10.2951C13.8411 10.2951 11.2234 12.9128 11.2234 16.1303C11.2234 17.4789 11.6845 18.7211 12.4557 19.7104C10.4421 20.9028 8.92777 22.8511 8.30598 25.1627C6.5518 23.1228 5.51562 20.4768 5.51562 17.629ZM14.7388 16.1302C14.7388 14.8511 15.7794 13.8106 17.0584 13.8106C18.3373 13.8106 19.378 14.8512 19.378 16.1302C19.378 17.4092 18.3373 18.4498 17.0584 18.4498C15.7794 18.4498 14.7388 17.4093 14.7388 16.1302ZM11.51 27.7585C11.51 24.1996 14.1761 21.9656 17.0584 21.9656C19.9133 21.9656 22.6067 24.1682 22.6067 27.7585C19.0905 29.6798 14.8902 29.6054 11.51 27.7585ZM11.2189 53.2155C8.07418 53.2155 5.51562 50.6569 5.51562 47.5121C5.51562 44.3672 8.07418 41.8088 11.2189 41.8088C14.3636 41.8088 16.9222 44.3674 16.9222 47.5121C16.9222 50.6568 14.3638 53.2155 11.2189 53.2155ZM41.3932 57.6417C41.3932 54.0834 44.0587 51.8493 46.9405 51.8487H46.9416C46.9416 51.8487 46.9423 51.8487 46.9428 51.8487C49.7962 51.8493 52.4901 54.0507 52.4901 57.6415C49.0636 59.5138 44.8636 59.5379 41.3932 57.6417ZM44.6219 46.0134C44.6219 44.7343 45.6625 43.6938 46.9415 43.6938C48.2205 43.6938 49.2611 44.7344 49.2611 46.0134C49.2611 47.2922 48.2209 48.3326 46.9422 48.3331C46.942 48.3331 46.9425 48.3331 46.9422 48.3331C46.942 48.3331 46.9411 48.3331 46.9408 48.3331C45.6622 48.3326 44.6219 47.2922 44.6219 46.0134ZM58.4844 47.5121C58.4844 50.3599 57.4482 53.0058 55.6943 55.0457C55.0725 52.7342 53.5582 50.7858 51.5446 49.5934C52.3159 48.6041 52.777 47.362 52.777 46.0134C52.777 42.7958 50.1593 40.1781 46.9418 40.1781C43.7243 40.1781 41.1065 42.7959 41.1065 46.0134C41.1065 47.362 41.5677 48.6041 42.3389 49.5934C40.3254 50.7858 38.8109 52.7342 38.1893 55.0457C36.4353 53.0058 35.3991 50.3599 35.3991 47.5121C35.3991 41.1473 40.5772 35.9692 46.942 35.9692C53.3068 35.9692 58.4844 41.1474 58.4844 47.5121Z" fill="#F4F4F4"/>
<path fill-rule="evenodd" clip-rule="evenodd" d="M1.75 17.629C1.75 9.18764 8.61708 2.32056 17.0585 2.32056C24.8195 2.32056 31.248 8.12537 32.2346 15.6211H43.5284C44.452 11.3615 48.2482 8.16001 52.7811 8.16001C58.0024 8.16001 62.25 12.4077 62.25 17.629C62.25 22.8503 58.0025 27.0979 52.7811 27.0979C48.2482 27.0979 44.4518 23.8965 43.5284 19.6368H32.2353C31.8804 22.3438 30.8172 24.8525 29.2143 26.9454L37.6345 35.3656C40.2152 33.3836 43.4433 32.2036 46.9415 32.2036C55.3829 32.2036 62.25 39.0708 62.25 47.5121C62.25 55.9792 55.4091 62.8206 46.9415 62.8206C39.1958 62.8206 32.7553 57.0834 31.7647 49.5199H20.4716C19.548 53.7795 15.7518 56.981 11.2189 56.981C5.99759 56.981 1.75 52.7334 1.75 47.5121C1.75 42.2908 5.99759 38.0432 11.2189 38.0434C15.7518 38.0434 19.5482 41.2448 20.4716 45.5045H31.7654C32.1236 42.7826 33.1988 40.2839 34.7952 38.2053L26.3758 29.786C23.7084 31.8299 20.4362 32.9375 17.0585 32.9375C8.59119 32.9375 1.75 26.0964 1.75 17.629ZM17.0585 2.82056C8.89323 2.82056 2.25 9.46378 2.25 17.629C2.25 25.8203 8.86733 32.4375 17.0585 32.4375C20.3989 32.4375 23.6316 31.318 26.2416 29.2569L26.4161 29.1191L35.4624 38.1654L35.3242 38.3399C33.6643 40.4377 32.5605 42.9935 32.2346 45.7835L32.2088 46.0045H20.0616L20.0223 45.8021C19.2215 41.6719 15.5788 38.5434 11.2189 38.5434C6.27374 38.5432 2.25 42.5669 2.25 47.5121C2.25 52.4573 6.27374 56.481 11.2189 56.481C15.5788 56.481 19.2214 53.3524 20.0223 49.2223L20.0616 49.0199H32.2083L32.234 49.241C33.0976 56.6627 39.3756 62.3206 46.9415 62.3206C55.1329 62.3206 61.75 55.7031 61.75 47.5121C61.75 39.3469 55.1068 32.7036 46.9415 32.7036C43.4804 32.7036 40.2935 33.8973 37.7691 35.8947L37.5946 36.0328L28.5476 26.9858L28.6853 26.8113C30.3524 24.6988 31.4432 22.132 31.766 19.358L31.7917 19.1368H43.9384L43.9777 19.3393C44.7785 23.4695 48.4212 26.5979 52.7811 26.5979C57.7264 26.5979 61.75 22.5742 61.75 17.629C61.75 12.6839 57.7263 8.66001 52.7811 8.66001C48.4212 8.66001 44.7786 11.7886 43.9777 15.9187L43.9384 16.1211H31.7912L31.7654 15.9001C30.9064 8.5465 24.6386 2.82056 17.0585 2.82056ZM17.0585 6.33618C10.8317 6.33618 5.76562 11.4023 5.76562 17.629C5.76562 20.2515 6.66356 22.6987 8.20001 24.6414C8.87808 22.5556 10.2726 20.7917 12.0919 19.6401C11.3885 18.6478 10.9734 17.4369 10.9734 16.1303C10.9734 12.7748 13.703 10.0451 17.0586 10.0451C20.4142 10.0451 23.1438 12.7746 23.1438 16.1303C23.1438 17.4369 22.7287 18.6478 22.0253 19.6401C23.8446 20.7917 25.2391 22.5555 25.9172 24.6414C27.4534 22.6987 28.3513 20.2515 28.3513 17.629C28.3513 11.4023 23.2852 6.33618 17.0585 6.33618ZM5.26562 17.629C5.26562 11.1262 10.5556 5.83618 17.0585 5.83618C23.5614 5.83618 28.8513 11.1262 28.8513 17.629C28.8513 20.5382 27.7927 23.2416 26.0008 25.3257L25.6926 25.6841L25.5698 25.2276C24.9653 22.9804 23.4928 21.0853 21.5341 19.9255L21.2896 19.7808L21.4643 19.5567C22.2027 18.6095 22.6438 17.4209 22.6438 16.1303C22.6438 13.0508 20.138 10.5451 17.0586 10.5451C13.9792 10.5451 11.4734 13.0509 11.4734 16.1303C11.4734 17.4209 11.9144 18.6095 12.6529 19.5567L12.8275 19.7808L12.5831 19.9255C10.6244 21.0853 9.15189 22.9804 8.54739 25.2276L8.42461 25.684L8.11643 25.3257C6.32428 23.2416 5.26562 20.5382 5.26562 17.629ZM52.7811 12.1756C49.7743 12.1756 47.3278 14.6223 47.3278 17.6289C47.3278 20.6356 49.7744 23.0822 52.7811 23.0822C55.7878 23.0822 58.2344 20.6356 58.2344 17.6289C58.2344 14.6223 55.7879 12.1756 52.7811 12.1756ZM46.8278 17.6289C46.8278 14.3461 49.4982 11.6756 52.7811 11.6756C56.064 11.6756 58.7344 14.3461 58.7344 17.6289C58.7344 20.9117 56.0639 23.5822 52.7811 23.5822C49.4983 23.5822 46.8278 20.9117 46.8278 17.6289ZM17.0584 14.0606C15.9174 14.0606 14.9888 14.9892 14.9888 16.1302C14.9888 17.2712 15.9174 18.1998 17.0584 18.1998C18.1993 18.1998 19.128 17.2711 19.128 16.1302C19.128 14.9893 18.1993 14.0606 17.0584 14.0606ZM14.4888 16.1302C14.4888 14.713 15.6413 13.5606 17.0584 13.5606C18.4754 13.5606 19.628 14.7131 19.628 16.1302C19.628 17.5473 18.4754 18.6998 17.0584 18.6998C15.6413 18.6998 14.4888 17.5474 14.4888 16.1302ZM11.7616 27.6099C15.0033 29.3252 18.9882 29.3923 22.3551 27.61C22.2823 24.2532 19.743 22.2156 17.0584 22.2156C14.3488 22.2156 11.8344 24.2815 11.7616 27.6099ZM11.26 27.7585C11.26 24.0561 14.0435 21.7156 17.0584 21.7156C20.0442 21.7156 22.8567 24.023 22.8567 27.7585V27.9068L22.7266 27.9779C19.1341 29.9409 14.8434 29.8647 11.3901 27.9779L11.26 27.9068V27.7585ZM46.942 36.2192C40.7153 36.2192 35.6491 41.2853 35.6491 47.5121C35.6491 50.1345 36.5471 52.5817 38.0833 54.5244C38.7613 52.4386 40.1559 50.6747 41.9751 49.5231C41.2717 48.5309 40.8565 47.3199 40.8565 46.0134C40.8565 42.6578 43.5862 39.9281 46.9418 39.9281C50.2973 39.9281 53.027 42.6577 53.027 46.0134C53.027 47.3199 52.6118 48.5309 51.9084 49.5231C53.7276 50.6747 55.1221 52.4386 55.8002 54.5244C57.3365 52.5817 58.2344 50.1345 58.2344 47.5121C58.2344 41.2854 53.1687 36.2192 46.942 36.2192ZM35.1491 47.5121C35.1491 41.0092 40.4391 35.7192 46.942 35.7192C53.4449 35.7192 58.7344 41.0093 58.7344 47.5121C58.7344 50.4212 57.6757 53.1247 55.8838 55.2087L55.5756 55.5671L55.4528 55.1107C54.8483 52.8635 53.3758 50.9684 51.4173 49.8086L51.1728 49.6638L51.3475 49.4397C52.0859 48.4925 52.527 47.304 52.527 46.0134C52.527 42.9338 50.0212 40.4281 46.9418 40.4281C43.8623 40.4281 41.3565 42.9339 41.3565 46.0134C41.3565 47.304 41.7976 48.4925 42.536 49.4397L42.7107 49.6638L42.4663 49.8086C40.5077 50.9684 39.0351 52.8635 38.4307 55.1106L38.3079 55.5672L37.9997 55.2087C36.2078 53.1247 35.1491 50.4212 35.1491 47.5121ZM11.2189 42.0588C8.21225 42.0588 5.76562 44.5053 5.76562 47.5121C5.76562 50.5189 8.21225 52.9655 11.2189 52.9655C14.2257 52.9655 16.6722 50.5187 16.6722 47.5121C16.6722 44.5054 14.2256 42.0588 11.2189 42.0588ZM5.26562 47.5121C5.26562 44.2292 7.93611 41.5588 11.2189 41.5588C14.5017 41.5588 17.1722 44.2293 17.1722 47.5121C17.1722 50.7949 14.5018 53.4655 11.2189 53.4655C7.93611 53.4655 5.26562 50.795 5.26562 47.5121ZM46.9415 43.9438C45.8006 43.9438 44.8719 44.8723 44.8719 46.0134C44.8719 47.1542 45.8002 48.0826 46.9408 48.0831C46.9408 48.0831 46.9409 48.0831 46.9408 48.0831H46.9418M44.3719 46.0134C44.3719 44.5962 45.5245 43.4438 46.9415 43.4438C48.3586 43.4438 49.5111 44.5963 49.5111 46.0134C49.5111 47.4303 48.359 48.5826 46.9423 48.5831H46.9413C45.5247 48.5826 44.3719 47.4303 44.3719 46.0134ZM46.9415 43.9438C48.0824 43.9438 49.0111 44.8725 49.0111 46.0134L46.9415 43.9438ZM49.0111 46.0134C49.0111 47.1541 48.0824 48.0826 46.9418 48.0831L49.0111 46.0134ZM41.6448 57.4931C44.9695 59.2529 48.9541 59.2312 52.2385 57.493C52.1657 54.1357 49.626 52.0993 46.9427 52.0987H46.9405C44.2314 52.0993 41.7175 54.1652 41.6448 57.4931ZM41.1432 57.6417C41.1432 53.9399 43.9261 51.5993 46.9405 51.5987H46.9427C49.9268 51.5993 52.7401 53.9055 52.7401 57.6415V57.7898L52.61 57.8609C49.1092 59.7738 44.8189 59.7984 41.2733 57.861L41.1432 57.7899V57.6417Z" fill="#F4F4F4"/>
</svg>
