<svg width="64" height="65" viewBox="0 0 64 65" fill="none" xmlns="http://www.w3.org/2000/svg">
<path d="M57.5508 5.57056H6.44922C3.44458 5.57056 1 7.99306 1 10.9706V54.1706C1 57.1481 3.44458 59.5706 6.44922 59.5706H57.5508C60.5554 59.5706 63 57.1481 63 54.1706V10.9706C63 7.99306 60.5554 5.57056 57.5508 5.57056ZM30.1836 52.3706V55.9706H19.2852V52.3706H30.1836ZM33.8164 52.3706H44.7148V55.9706H33.8164V52.3706ZM4.63281 48.7706V16.3706H59.3672V48.7706H4.63281ZM33.8164 12.7706V9.17056H44.7148V12.7706H33.8164ZM30.1836 12.7706H19.2852V9.17056H30.1836V12.7706ZM59.3672 10.9706V12.7706H48.3477V9.17056H57.5508C58.5522 9.17056 59.3672 9.97821 59.3672 10.9706ZM6.44922 9.17056H15.6523V12.7706H4.63281V10.9706C4.63281 9.97821 5.44783 9.17056 6.44922 9.17056ZM4.63281 54.1706V52.3706H15.6523V55.9706H6.44922C5.44783 55.9706 4.63281 55.1629 4.63281 54.1706ZM57.5508 55.9706H48.3477V52.3706H59.3672V54.1706C59.3672 55.1629 58.5522 55.9706 57.5508 55.9706Z" fill="#F4F4F4"/>
<path d="M40.3555 31.1306L25.8242 20.3306C24.6256 19.4399 22.918 20.2949 22.918 21.7706V43.3706C22.918 44.0526 23.3068 44.6756 23.9222 44.9807C24.5362 45.2849 25.2731 45.2202 25.8242 44.8106L40.3555 34.0106C40.8129 33.6707 41.082 33.1373 41.082 32.5706C41.082 32.0038 40.8129 31.4704 40.3555 31.1306ZM26.5508 39.7706V25.3706L36.2383 32.5706L26.5508 39.7706Z" fill="#F4F4F4"/>
<path fill-rule="evenodd" clip-rule="evenodd" d="M0.75 10.9706C0.75 7.85285 3.30865 5.32056 6.44922 5.32056H57.5508C60.6913 5.32056 63.25 7.85285 63.25 10.9706V54.1706C63.25 57.2883 60.6913 59.8206 57.5508 59.8206H6.44922C3.30865 59.8206 0.75 57.2883 0.75 54.1706V10.9706ZM6.44922 5.82056C3.58051 5.82056 1.25 8.13326 1.25 10.9706V54.1706C1.25 57.0079 3.58051 59.3206 6.44922 59.3206H57.5508C60.4195 59.3206 62.75 57.0079 62.75 54.1706V10.9706C62.75 8.13326 60.4195 5.82056 57.5508 5.82056H6.44922ZM6.44922 9.42056C5.58376 9.42056 4.88281 10.1184 4.88281 10.9706V12.5206H15.4023V9.42056H6.44922ZM4.38281 10.9706C4.38281 9.83801 5.3119 8.92056 6.44922 8.92056H15.9023V13.0206H4.38281V10.9706ZM19.0352 8.92056H30.4336V13.0206H19.0352V8.92056ZM19.5352 9.42056V12.5206H29.9336V9.42056H19.5352ZM33.5664 8.92056H44.9648V13.0206H33.5664V8.92056ZM34.0664 9.42056V12.5206H44.4648V9.42056H34.0664ZM48.0977 8.92056H57.5508C58.6881 8.92056 59.6172 9.83801 59.6172 10.9706V13.0206H48.0977V8.92056ZM48.5977 9.42056V12.5206H59.1172V10.9706C59.1172 10.1184 58.4162 9.42056 57.5508 9.42056H48.5977ZM4.38281 16.1206H59.6172V49.0206H4.38281V16.1206ZM4.88281 16.6206V48.5206H59.1172V16.6206H4.88281ZM22.668 21.7706C22.668 20.0862 24.6123 19.1186 25.9733 20.1299L40.5046 30.9299C41.025 31.3166 41.332 31.9242 41.332 32.5706C41.332 33.2169 41.025 33.8245 40.5046 34.2112L25.9734 45.0112C25.3466 45.4771 24.5091 45.5505 23.8112 45.2047C23.1116 44.8578 22.668 44.1486 22.668 43.3706V21.7706ZM25.6751 20.5312C24.6388 19.7613 23.168 20.5036 23.168 21.7706V43.3706C23.168 43.9566 23.502 44.4933 24.0332 44.7567C24.5633 45.0193 25.1997 44.9633 25.6751 44.6099L40.2063 33.8099C40.6007 33.5169 40.832 33.0577 40.832 32.5706C40.832 32.0834 40.6007 31.6242 40.2064 31.3312L25.6751 20.5312ZM26.3008 24.8733L36.6574 32.5706L26.3008 40.2678V24.8733ZM26.8008 25.8678V39.2733L35.8192 32.5706L26.8008 25.8678ZM4.38281 52.1206H15.9023V56.2206H6.44922C5.3119 56.2206 4.38281 55.3031 4.38281 54.1706V52.1206ZM4.88281 52.6206V54.1706C4.88281 55.0227 5.58376 55.7206 6.44922 55.7206H15.4023V52.6206H4.88281ZM19.0352 52.1206H30.4336V56.2206H19.0352V52.1206ZM19.5352 52.6206V55.7206H29.9336V52.6206H19.5352ZM33.5664 52.1206H44.9648V56.2206H33.5664V52.1206ZM34.0664 52.6206V55.7206H44.4648V52.6206H34.0664ZM48.0977 52.1206H59.6172V54.1706C59.6172 55.3031 58.6881 56.2206 57.5508 56.2206H48.0977V52.1206ZM48.5977 52.6206V55.7206H57.5508C58.4162 55.7206 59.1172 55.0227 59.1172 54.1706V52.6206H48.5977Z" fill="#F4F4F4"/>
</svg>
